<svg width="25" height="26" viewBox="0 0 25 26" fill="none" xmlns="http://www.w3.org/2000/svg">
<path fill-rule="evenodd" clip-rule="evenodd" d="M12.2777 1.43036C10.2923 1.43036 8.38816 2.21907 6.98424 3.62299C5.58032 5.02691 4.79161 6.93103 4.79161 8.91647C4.79161 12.2888 4.07081 14.357 3.42656 15.5381C3.10255 16.1321 2.7904 16.5158 2.58063 16.7372C2.47539 16.8483 2.39497 16.9196 2.35045 16.9567C2.33144 16.9725 2.31894 16.9821 2.31382 16.986C1.82982 17.322 1.6162 17.9326 1.78751 18.4984C1.96132 19.0725 2.49042 19.4651 3.09022 19.4651H21.4652C22.065 19.4651 22.5941 19.0725 22.7679 18.4984C22.9392 17.9326 22.7256 17.322 22.2416 16.986C22.2365 16.9821 22.224 16.9725 22.205 16.9567C22.1605 16.9196 22.08 16.8483 21.9748 16.7372C21.765 16.5158 21.4529 16.1321 21.1289 15.5381C20.4846 14.357 19.7638 12.2888 19.7638 8.91647C19.7638 6.93103 18.9751 5.02691 17.5712 3.62299C16.1673 2.21907 14.2632 1.43036 12.2777 1.43036ZM17.0416 8.91647C17.0416 12.6143 17.8199 15.1138 18.6858 16.7429H5.8696C6.73553 15.1138 7.51383 12.6143 7.51383 8.91647C7.51383 7.65301 8.01574 6.44129 8.90914 5.54789C9.80255 4.65449 11.0143 4.15258 12.2777 4.15258C13.5412 4.15258 14.7529 4.65449 15.6463 5.54789C16.5397 6.44129 17.0416 7.65301 17.0416 8.91647ZM11.6892 21.5043C11.312 20.8541 10.4791 20.6327 9.8289 21.0099C9.17866 21.3871 8.95731 22.22 9.3345 22.8703C9.63363 23.3859 10.063 23.8139 10.5795 24.1115C11.0961 24.409 11.6818 24.5656 12.2779 24.5656C12.874 24.5656 13.4597 24.409 13.9763 24.1115C14.4928 23.8139 14.9222 23.3859 15.2213 22.8703C15.5985 22.22 15.3772 21.3871 14.7269 21.0099C14.0767 20.6327 13.2438 20.8541 12.8666 21.5043C12.8068 21.6075 12.7209 21.6931 12.6176 21.7526C12.5143 21.8121 12.3971 21.8434 12.2779 21.8434C12.1587 21.8434 12.0415 21.8121 11.9382 21.7526C11.8349 21.6931 11.7491 21.6075 11.6892 21.5043Z" fill="white"/>
</svg>
