<svg width="24" height="25" viewBox="0 0 24 25" fill="none" xmlns="http://www.w3.org/2000/svg">
<path fill-rule="evenodd" clip-rule="evenodd" d="M11.0429 3.54287C12.3563 2.22949 14.1376 1.49164 15.995 1.49164C17.8524 1.49164 19.6337 2.22949 20.9471 3.54287C22.2605 4.85625 22.9983 6.63757 22.9983 8.49498C22.9983 10.352 22.2608 12.133 20.9479 13.4463L20.9471 13.4471L18.2938 16.1083C18.2409 16.1771 18.1794 16.2389 18.1107 16.2919L14.2082 20.206C14.0205 20.3942 13.7657 20.5 13.5 20.5H5.41421L2.70711 23.2071C2.31658 23.5976 1.68342 23.5976 1.29289 23.2071C0.902369 22.8166 0.902369 22.1834 1.29289 21.7929L4 19.0858V11C4 10.7348 4.10536 10.4804 4.29289 10.2929L11.0429 3.54287ZM17.0731 14.5L19.5318 12.0339L19.5329 12.0329C20.4712 11.0946 20.9983 9.82194 20.9983 8.49498C20.9983 7.16801 20.4712 5.89539 19.5329 4.95708C18.5946 4.01877 17.322 3.49164 15.995 3.49164C14.668 3.49164 13.3954 4.01877 12.4571 4.95708L6 11.4142V17.0858L15.2929 7.79287C15.6834 7.40234 16.3166 7.40234 16.7071 7.79287C17.0976 8.18339 17.0976 8.81656 16.7071 9.20708L11.4142 14.5H17.0731ZM9.41421 16.5H15.079L13.0849 18.5H7.41421L9.41421 16.5Z" fill="#E82A45"/>
</svg>
