<svg width="24" height="25" viewBox="0 0 24 25" fill="none" xmlns="http://www.w3.org/2000/svg">
<path fill-rule="evenodd" clip-rule="evenodd" d="M3 2.5C2.44772 2.5 2 2.94772 2 3.5V10.5C2 11.0523 2.44772 11.5 3 11.5H10C10.5523 11.5 11 11.0523 11 10.5V3.5C11 2.94772 10.5523 2.5 10 2.5H3ZM4 9.5V4.5H9V9.5H4ZM14 2.5C13.4477 2.5 13 2.94772 13 3.5V10.5C13 11.0523 13.4477 11.5 14 11.5H21C21.5523 11.5 22 11.0523 22 10.5V3.5C22 2.94772 21.5523 2.5 21 2.5H14ZM15 9.5V4.5H20V9.5H15ZM13 14.5C13 13.9477 13.4477 13.5 14 13.5H21C21.5523 13.5 22 13.9477 22 14.5V21.5C22 22.0523 21.5523 22.5 21 22.5H14C13.4477 22.5 13 22.0523 13 21.5V14.5ZM15 15.5V20.5H20V15.5H15ZM3 13.5C2.44772 13.5 2 13.9477 2 14.5V21.5C2 22.0523 2.44772 22.5 3 22.5H10C10.5523 22.5 11 22.0523 11 21.5V14.5C11 13.9477 10.5523 13.5 10 13.5H3ZM4 20.5V15.5H9V20.5H4Z" fill="#E82A45"/>
</svg>
