
<svg width="176" height="50" viewBox="0 0 176 50" fill="none" xmlns="http://www.w3.org/2000/svg">
<path d="M27.7218 3.38672H1.54443V13.5508H27.7218V3.38672Z" fill="#E82A45"/>
<path d="M27.7218 18.6367H1.54443V28.8008H27.7218V18.6367Z" fill="#E82A45"/>
<path d="M43.4282 44.0448V3.38672L32.9573 3.38672V44.0448H43.4282Z" fill="#E82A45"/>
<path d="M27.7218 33.8828H1.54443V44.0469H27.7218V33.8828Z" fill="#E82A45"/>
<path d="M70.0703 16.9132H62.2338V13.0004H69.4522V10.1457H62.2338V6.24313H70.0368V3.38672H58.666V19.7679H70.0703V16.9132Z" fill="#050728"/>
<path d="M80.9711 12.5547V19.7684H84.4808V11.9462C84.5035 11.0933 84.3176 10.2474 83.9384 9.4778C83.6011 8.81382 83.0717 8.25961 82.4151 7.88293C81.7153 7.49802 80.9212 7.30427 80.117 7.32225C79.2711 7.29718 78.4364 7.51608 77.7186 7.95131C77.072 8.35488 76.5777 8.95107 76.3097 9.65045H76.1618V7.48293H72.8159V19.7684H76.3256V12.6658C76.3174 12.1966 76.4236 11.7321 76.6355 11.3103C76.8217 10.9506 77.1142 10.6531 77.4755 10.4556C77.8554 10.2523 78.2833 10.1486 78.717 10.1547C79.4214 10.1547 79.9732 10.3667 80.3724 10.7906C80.7715 11.2146 80.9711 11.8026 80.9711 12.5547Z" fill="#050728"/>
<path d="M94.214 19.6179L93.661 17.0829L93.2824 17.1513C93.1191 17.1799 92.9535 17.1942 92.7876 17.194C92.5755 17.1981 92.3646 17.1633 92.1659 17.0914C91.9871 17.0213 91.8394 16.8924 91.7486 16.7273C91.6379 16.4984 91.5871 16.2465 91.6006 15.994V10.0436H93.9833V7.47948H91.5918V4.54102H88.0821V7.4846H86.3511V10.0487H88.0821V16.4436C88.0821 17.2493 88.2553 17.9154 88.6016 18.4419C88.9553 18.973 89.4731 19.3817 90.0809 19.6094C90.7883 19.872 91.5456 19.984 92.3015 19.9376C92.6918 19.9296 93.0804 19.8855 93.462 19.806C93.7808 19.7342 94.0379 19.6709 94.214 19.6179Z" fill="#050728"/>
<path d="M101.892 20.0082C102.836 20.0254 103.774 19.867 104.657 19.5416C105.408 19.2612 106.08 18.8112 106.617 18.2288C107.126 17.6658 107.474 16.9834 107.628 16.2493L104.38 16.0424C104.267 16.3386 104.086 16.6062 103.852 16.8253C103.614 17.0426 103.33 17.2066 103.019 17.3057C102.673 17.4148 102.312 17.4685 101.948 17.4647C101.416 17.4782 100.89 17.3543 100.423 17.1057C99.9959 16.8656 99.6506 16.5089 99.4301 16.08C99.1853 15.5893 99.0645 15.049 99.0779 14.504H107.707V13.5621C107.725 12.6313 107.572 11.7049 107.253 10.827C106.983 10.0961 106.551 9.43153 105.988 8.88004C105.449 8.36515 104.803 7.96821 104.093 7.71593C103.344 7.45293 102.553 7.32153 101.756 7.3279C100.621 7.30149 99.4992 7.57821 98.5144 8.1279C97.5969 8.65878 96.8551 9.43343 96.3765 10.3604C95.856 11.3909 95.5975 12.5275 95.6228 13.6749C95.6228 14.9706 95.8752 16.092 96.38 17.039C96.8617 17.9611 97.6143 18.7237 98.5426 19.2305C99.4735 19.7501 100.59 20.0094 101.892 20.0082ZM100.397 10.2236C100.824 9.98145 101.311 9.85786 101.806 9.86636C102.276 9.85718 102.741 9.96925 103.153 10.1911C103.54 10.4 103.859 10.7089 104.076 11.0835C104.301 11.4822 104.414 11.9313 104.405 12.386H99.0902C99.1072 11.9607 99.2279 11.5453 99.4424 11.1741C99.668 10.7806 99.9974 10.4525 100.397 10.2236Z" fill="#050728"/>
<path d="M114.807 10.5995C115.231 10.3781 115.706 10.2662 116.188 10.2748C116.455 10.2765 116.722 10.2954 116.987 10.3312C117.218 10.3571 117.446 10.4 117.67 10.4594V7.4286C117.497 7.38749 117.32 7.35836 117.142 7.34142C116.953 7.32027 116.763 7.30943 116.573 7.30895C115.898 7.29887 115.238 7.50559 114.696 7.89698C114.121 8.33298 113.713 8.94218 113.534 9.6286H113.402V7.48501H109.991V19.7705H113.502V12.8218C113.493 12.3562 113.615 11.897 113.854 11.4936C114.082 11.1167 114.411 10.8076 114.807 10.5995Z" fill="#050728"/>
<path d="M131.139 17.1093C131.592 16.1691 131.818 15.0135 131.818 13.6426C131.818 12.234 131.584 11.062 131.114 10.1263C130.713 9.26465 130.064 8.53429 129.244 8.02378C128.478 7.56063 127.593 7.31762 126.69 7.32293C126.079 7.30092 125.47 7.418 124.914 7.66481C124.472 7.86941 124.08 8.16041 123.76 8.51951C123.491 8.83117 123.267 9.17677 123.094 9.54686H122.938V7.48361H119.476V24.3759H122.985V17.8016H123.094C123.272 18.1706 123.505 18.5118 123.787 18.8135C124.112 19.1641 124.509 19.4457 124.952 19.6409C125.498 19.8736 126.091 19.9857 126.687 19.9691C127.611 19.9798 128.517 19.7278 129.295 19.2443C130.109 18.7199 130.749 17.9785 131.139 17.1093ZM127.925 15.5178C127.752 16.0172 127.44 16.4604 127.023 16.7981C126.603 17.0941 126.096 17.2535 125.577 17.2535C125.057 17.2535 124.551 17.0941 124.13 16.7981C123.712 16.4663 123.399 16.0275 123.225 15.5315C123.007 14.9189 122.903 14.2734 122.918 13.6255C122.904 12.9782 123.01 12.3336 123.232 11.7229C123.404 11.2324 123.717 10.7997 124.133 10.4751C124.56 10.1865 125.068 10.0332 125.588 10.0359C126.108 10.0387 126.614 10.1974 127.037 10.4904C127.453 10.8224 127.765 11.2605 127.937 11.7554C128.151 12.3567 128.254 12.9896 128.242 13.6255C128.251 14.2694 128.144 14.91 127.925 15.5178Z" fill="#050728"/>
<path d="M140.725 7.30894C140.05 7.29888 139.389 7.50557 138.847 7.89698C138.272 8.33298 137.863 8.94218 137.684 9.6286H137.552V7.48501H134.15V19.7705H137.66V12.8218C137.651 12.3563 137.773 11.8973 138.012 11.4936C138.241 11.1173 138.571 10.8083 138.966 10.5995C139.39 10.3777 139.866 10.2659 140.347 10.2748C140.614 10.2765 140.88 10.2954 141.145 10.3312C141.376 10.3572 141.605 10.4 141.83 10.4594V7.4286C141.656 7.38774 141.479 7.35861 141.301 7.34142C141.11 7.32007 140.918 7.30923 140.725 7.30894Z" fill="#050728"/>
<path d="M147.143 7.48438H143.633V19.7698H147.143V7.48438Z" fill="#050728"/>
<path d="M145.397 2.4534C144.9 2.44685 144.421 2.63116 144.063 2.96622C143.886 3.11889 143.745 3.30611 143.648 3.51558C143.551 3.72505 143.501 3.95203 143.501 4.1816C143.501 4.41118 143.551 4.63816 143.648 4.84763C143.745 5.0571 143.886 5.24432 144.063 5.39699C144.428 5.72448 144.907 5.90636 145.404 5.90636C145.901 5.90636 146.38 5.72448 146.745 5.39699C146.92 5.24345 147.06 5.05594 147.156 4.84659C147.251 4.63724 147.301 4.4107 147.301 4.1816C147.301 3.95251 147.251 3.72597 147.156 3.51662C147.06 3.30727 146.92 3.11976 146.745 2.96622C146.383 2.62934 145.899 2.44499 145.397 2.4534Z" fill="#050728"/>
<path d="M157.104 12.6348L154.815 12.1869C154.227 12.0655 153.811 11.9014 153.57 11.6997C153.456 11.6101 153.364 11.4967 153.302 11.368C153.239 11.2393 153.207 11.0985 153.207 10.9561C153.208 10.7731 153.261 10.5939 153.36 10.4381C153.459 10.2822 153.599 10.1557 153.767 10.0724C154.186 9.84076 154.663 9.7271 155.144 9.74416C155.507 9.73488 155.868 9.80194 156.201 9.94074C156.473 10.0577 156.714 10.2331 156.905 10.4536C157.083 10.6633 157.204 10.9123 157.258 11.1783L160.471 10.9852C160.412 10.4538 160.238 9.94058 159.96 9.47901C159.683 9.01744 159.308 8.61793 158.86 8.30655C157.941 7.65014 156.682 7.32194 155.083 7.32194C154.118 7.30234 153.158 7.4601 152.253 7.78689C151.517 8.05011 150.872 8.50779 150.39 9.10826C149.94 9.69713 149.707 10.415 149.726 11.1476C149.711 11.5644 149.783 11.9798 149.938 12.3687C150.093 12.7577 150.328 13.1122 150.627 13.4108C151.23 14.0023 152.148 14.4182 153.383 14.6587L155.576 15.0826C156.013 15.1448 156.43 15.302 156.796 15.5424C156.92 15.6304 157.021 15.7453 157.091 15.878C157.161 16.0107 157.198 16.1575 157.2 16.3066C157.194 16.4921 157.138 16.6729 157.038 16.8307C156.937 16.9886 156.796 17.1179 156.627 17.2057C156.158 17.4413 155.636 17.561 155.108 17.5542C154.579 17.5473 154.061 17.4141 153.598 17.1664C153.4 17.0375 153.23 16.8707 153.1 16.6762C152.97 16.4816 152.882 16.2634 152.841 16.0348L149.388 16.2057C149.458 16.7627 149.65 17.2987 149.95 17.778C150.251 18.2574 150.654 18.6689 151.131 18.9852C152.122 19.6689 153.455 20.0108 155.13 20.0108C156.127 20.0276 157.116 19.8533 158.043 19.498C158.825 19.2036 159.513 18.7142 160.038 18.0792C160.523 17.4741 160.78 16.7261 160.767 15.9595C160.783 15.56 160.711 15.1618 160.554 14.7919C160.398 14.422 160.161 14.0892 159.86 13.816C159.255 13.2746 158.336 12.8809 157.104 12.6348Z" fill="#050728"/>
<path d="M174.556 14.4975V13.5624C174.576 12.6318 174.422 11.7054 174.104 10.8274C173.833 10.0968 173.402 9.43232 172.839 8.88038C172.301 8.36549 171.655 7.96856 170.945 7.71628C170.195 7.45356 169.404 7.32217 168.608 7.32825C167.47 7.29875 166.346 7.57375 165.359 8.12312C164.443 8.65449 163.704 9.42918 163.228 10.3556C162.705 11.3872 162.444 12.5257 162.469 13.6753C162.469 14.971 162.722 16.0923 163.228 17.0394C163.71 17.9614 164.462 18.724 165.39 19.2308C166.33 19.7448 167.449 20.0018 168.749 20.0018C169.692 20.0191 170.63 19.8607 171.512 19.5351C172.264 19.2547 172.936 18.8047 173.473 18.2223C173.983 17.6597 174.331 16.977 174.482 16.2428L171.237 16.0359C171.123 16.332 170.943 16.5996 170.709 16.8188C170.471 17.0361 170.187 17.2001 169.877 17.2992C169.531 17.4085 169.169 17.4622 168.805 17.4582C168.273 17.4715 167.748 17.3477 167.282 17.0992C166.854 16.8591 166.509 16.5024 166.288 16.0735C166.043 15.5831 165.922 15.0426 165.936 14.4975H174.556ZM167.252 10.224C167.679 9.98212 168.166 9.85856 168.661 9.86671C169.131 9.85753 169.596 9.96959 170.008 10.1915C170.39 10.4021 170.705 10.7108 170.918 11.0838C171.143 11.4826 171.257 11.9317 171.247 12.3864H165.947C165.965 11.9611 166.085 11.546 166.299 11.1744C166.525 10.7815 166.853 10.4536 167.252 10.224Z" fill="#050728"/>
<path d="M62.2338 27.6641H58.666V44.0453H62.2338V27.6641Z" fill="#050728"/>
<path d="M74.7091 32.1606C74.0091 31.7763 73.215 31.5831 72.411 31.6016C71.5652 31.5761 70.7306 31.7944 70.0125 32.229C69.3659 32.6326 68.8716 33.2288 68.6037 33.9281H68.4558V31.7606H65.1099V44.0461H68.6195V36.9435C68.6113 36.4743 68.7175 36.0098 68.9295 35.588C69.1162 35.2287 69.4086 34.9312 69.7695 34.7333C70.152 34.5309 70.5824 34.4289 71.018 34.4375C71.7224 34.4375 72.2742 34.6495 72.6734 35.0734C73.0725 35.4974 73.2704 36.0854 73.2668 36.8375V44.0512H76.78V36.2239C76.803 35.3708 76.6165 34.5247 76.2359 33.7555C75.8971 33.0914 75.3666 32.5372 74.7091 32.1606Z" fill="#050728"/>
<path d="M86.6979 36.9117L84.4086 36.4638C83.8216 36.343 83.4071 36.1806 83.1653 35.9767C83.051 35.8873 82.959 35.7739 82.8962 35.6452C82.8334 35.5164 82.8014 35.3755 82.8025 35.2331C82.8039 35.0502 82.8567 34.8711 82.9555 34.7153C83.0542 34.5595 83.195 34.433 83.3625 34.3493C83.7802 34.1167 84.2566 34.0018 84.7379 34.0177C85.1004 34.0081 85.4608 34.0746 85.7945 34.2126C86.0694 34.3284 86.3134 34.5038 86.5077 34.7254C86.6848 34.9351 86.8058 35.1841 86.8599 35.4502L90.0737 35.257C90.0135 34.7258 89.839 34.2129 89.5614 33.7514C89.2838 33.2899 88.9094 32.8903 88.4624 32.5784C87.5408 31.922 86.2817 31.5943 84.685 31.5955C83.7195 31.5754 82.7588 31.7325 81.8533 32.0587C81.1152 32.3203 80.4673 32.7775 79.9832 33.3784C79.5351 33.9678 79.3021 34.6854 79.321 35.4177C79.3054 35.8346 79.3773 36.2502 79.5323 36.6392C79.6873 37.0283 79.9222 37.3827 80.2227 37.6809C80.8237 38.2724 81.7424 38.6883 82.9786 38.9288L85.1711 39.3527C85.6076 39.4157 86.024 39.5728 86.3897 39.8125C86.5141 39.9002 86.6154 40.015 86.6855 40.1478C86.7555 40.2806 86.7924 40.4275 86.793 40.5767C86.7878 40.7622 86.7322 40.9432 86.6317 41.1011C86.5311 41.259 86.3893 41.3883 86.2206 41.4758C85.7516 41.7114 85.23 41.8311 84.702 41.8243C84.1739 41.8174 83.6558 41.6842 83.1935 41.4365C82.9944 41.3078 82.8245 41.1411 82.694 40.9465C82.5635 40.7519 82.4752 40.5336 82.4345 40.3049L78.9829 40.4758C79.0521 41.0329 79.2433 41.5692 79.5437 42.0486C79.8441 42.528 80.2467 42.9395 80.7245 43.2553C81.7154 43.939 83.0491 44.2809 84.7255 44.2809C85.7217 44.2977 86.7116 44.1234 87.6382 43.7681C88.4198 43.4771 89.1086 42.9912 89.6352 42.3596C90.1202 41.7544 90.3775 41.0065 90.3643 40.2399C90.3807 39.8405 90.3084 39.4423 90.1522 39.0724C89.9961 38.7025 89.7597 38.3696 89.4591 38.0963C88.8486 37.5527 87.9282 37.1579 86.6979 36.9117Z" fill="#050728"/>
<path d="M96.0824 31.7617H92.5728V44.0472H96.0824V31.7617Z" fill="#050728"/>
<path d="M94.3352 26.7308C93.8381 26.7246 93.3585 26.9089 93.0004 27.2436C92.8242 27.3967 92.6833 27.5842 92.5868 27.7938C92.4903 28.0033 92.4404 28.2303 92.4404 28.4599C92.4404 28.6894 92.4903 28.9164 92.5868 29.126C92.6833 29.3355 92.8242 29.523 93.0004 29.6761C93.366 30.0025 93.8447 30.1836 94.3414 30.1836C94.8382 30.1836 95.3168 30.0025 95.6824 29.6761C95.8576 29.5224 95.9977 29.3348 96.0935 29.1253C96.1894 28.9158 96.2389 28.6891 96.2389 28.4599C96.2389 28.2306 96.1894 28.004 96.0935 27.7945C95.9977 27.585 95.8576 27.3973 95.6824 27.2436C95.3212 26.9061 94.8366 26.7216 94.3352 26.7308Z" fill="#050728"/>
<path d="M107.287 33.8244H107.157C106.974 33.4612 106.746 33.1213 106.477 32.8124C106.157 32.4523 105.762 32.1612 105.319 31.9577C104.761 31.7113 104.152 31.5942 103.54 31.6158C102.636 31.6082 101.749 31.8494 100.981 32.3115C100.163 32.8194 99.5148 33.5468 99.1146 34.4056C98.645 35.3389 98.4102 36.5019 98.4102 37.8944C98.4102 39.254 98.6397 40.3776 99.0987 41.2654C99.4974 42.0901 100.144 42.7784 100.953 43.2398C101.745 43.6689 102.64 43.8866 103.547 43.8705C104.138 43.8841 104.726 43.7866 105.278 43.5833C105.722 43.4153 106.125 43.1618 106.465 42.838C106.755 42.5592 106.989 42.2313 107.157 41.8705H107.305V44.1184C107.305 44.9241 107.056 45.503 106.558 45.8551C106.003 46.2229 105.34 46.4075 104.669 46.3816C104.228 46.3928 103.788 46.328 103.371 46.1902C103.054 46.0846 102.764 45.917 102.517 45.6979C102.318 45.5184 102.159 45.3022 102.048 45.062L98.8011 45.4859C98.9515 46.1192 99.273 46.7022 99.7327 47.1748C100.272 47.7192 100.935 48.1327 101.67 48.3816C102.608 48.701 103.598 48.8527 104.591 48.8295C105.685 48.8488 106.774 48.6697 107.8 48.3013C108.669 47.9941 109.428 47.4512 109.989 46.7372C110.516 46.0466 110.779 45.1919 110.779 44.1731V31.7611H107.293L107.287 33.8244ZM107.004 39.715C106.826 40.1864 106.511 40.5978 106.097 40.8996C105.667 41.1712 105.164 41.3158 104.651 41.3158C104.138 41.3158 103.636 41.1712 103.205 40.8996C102.793 40.5935 102.481 40.1778 102.307 39.703C102.089 39.1147 101.984 38.4923 101.999 37.8671C101.987 37.2385 102.09 36.6128 102.304 36.0192C102.476 35.5283 102.787 35.0945 103.202 34.7679C103.625 34.4764 104.131 34.3188 104.65 34.3167C105.169 34.3146 105.676 34.468 106.102 34.756C106.518 35.0772 106.831 35.5056 107.007 35.9919C107.23 36.5947 107.336 37.2321 107.321 37.8722C107.335 38.5004 107.228 39.1255 107.004 39.715Z" fill="#050728"/>
<path d="M123.219 32.1564C122.517 31.7742 121.722 31.5823 120.918 31.6008C119.956 31.6008 119.157 31.8071 118.519 32.2196C117.883 32.6323 117.398 33.231 117.135 33.929H116.987V27.6641H113.585V44.0453H117.095V36.9427C117.086 36.4726 117.195 36.0074 117.412 35.5871C117.604 35.2264 117.903 34.9291 118.269 34.7324C118.657 34.5298 119.093 34.4279 119.534 34.4367C120.246 34.4367 120.802 34.647 121.201 35.0675C121.601 35.488 121.797 36.0777 121.791 36.8367V44.0504H125.301V36.223C125.33 35.3678 125.145 34.5186 124.762 33.7478C124.419 33.0825 123.883 32.5293 123.219 32.1564Z" fill="#050728"/>
<path d="M134.092 41.4267C133.928 41.4554 133.763 41.4697 133.597 41.4694C133.385 41.4735 133.174 41.4387 132.975 41.3668C132.797 41.2966 132.65 41.1677 132.56 41.0027C132.449 40.7743 132.399 40.5231 132.412 40.2711V34.319H134.793V31.7549H132.412V28.8164H128.906V31.76H127.176V34.3241H128.906V40.7241C128.906 41.5287 129.079 42.1948 129.425 42.7224C129.78 43.2528 130.297 43.6613 130.904 43.8899C131.612 44.1526 132.369 44.2645 133.125 44.2181C133.516 44.2101 133.905 44.1661 134.287 44.0865C134.606 44.0147 134.853 43.9515 135.029 43.8985L134.47 41.3668L134.092 41.4267Z" fill="#050728"/>
</svg>
