<svg width="176" height="50" viewBox="0 0 176 50" fill="none" xmlns="http://www.w3.org/2000/svg">
<path d="M27.7218 3.3877H1.54443V13.5518H27.7218V3.3877Z" fill="#E82A45"/>
<path d="M27.7218 18.6357H1.54443V28.7998H27.7218V18.6357Z" fill="#E82A45"/>
<path d="M43.4282 44.0458V3.3877L32.9573 3.3877V44.0458H43.4282Z" fill="#E82A45"/>
<path d="M27.7218 33.8818H1.54443V44.046H27.7218V33.8818Z" fill="#E82A45"/>
<path d="M70.0703 16.9142H62.2338V13.0014H69.4522V10.1467H62.2338V6.2441H70.0368V3.3877H58.666V19.7689H70.0703V16.9142Z" fill="white"/>
<path d="M80.9711 12.5557V19.7694H84.4808V11.9472C84.5035 11.0943 84.3176 10.2484 83.9384 9.47878C83.6011 8.81479 83.0717 8.26059 82.4151 7.88391C81.7153 7.499 80.9212 7.30524 80.117 7.32323C79.2711 7.29815 78.4364 7.51706 77.7186 7.95228C77.072 8.35586 76.5777 8.95205 76.3097 9.65143H76.1618V7.48391H72.8159V19.7694H76.3256V12.6668C76.3174 12.1976 76.4236 11.7331 76.6355 11.3113C76.8217 10.9516 77.1142 10.654 77.4755 10.4566C77.8554 10.2533 78.2833 10.1496 78.717 10.1557C79.4214 10.1557 79.9732 10.3677 80.3724 10.7916C80.7715 11.2155 80.9711 11.8036 80.9711 12.5557Z" fill="white"/>
<path d="M94.214 19.617L93.661 17.0819L93.2824 17.1503C93.1191 17.1789 92.9535 17.1932 92.7876 17.193C92.5755 17.1972 92.3646 17.1624 92.1659 17.0905C91.9871 17.0203 91.8394 16.8915 91.7486 16.7264C91.6379 16.4974 91.5871 16.2456 91.6006 15.993V10.0426H93.9833V7.4785H91.5918V4.54004H88.0821V7.48363H86.3511V10.0477H88.0821V16.4426C88.0821 17.2483 88.2553 17.9144 88.6016 18.4409C88.9553 18.972 89.4731 19.3807 90.0809 19.6084C90.7883 19.8711 91.5456 19.983 92.3015 19.9366C92.6918 19.9286 93.0804 19.8845 93.462 19.805C93.7808 19.7332 94.0379 19.67 94.214 19.617Z" fill="white"/>
<path d="M101.892 20.0082C102.836 20.0254 103.774 19.867 104.657 19.5416C105.408 19.2612 106.08 18.8112 106.617 18.2288C107.126 17.6658 107.474 16.9834 107.628 16.2493L104.38 16.0424C104.267 16.3386 104.086 16.6062 103.852 16.8253C103.614 17.0426 103.33 17.2066 103.019 17.3057C102.673 17.4148 102.312 17.4685 101.948 17.4647C101.416 17.4782 100.89 17.3543 100.423 17.1057C99.9959 16.8656 99.6506 16.5089 99.4301 16.08C99.1853 15.5893 99.0645 15.049 99.0779 14.504H107.707V13.5621C107.725 12.6313 107.572 11.7049 107.253 10.827C106.983 10.0961 106.551 9.43153 105.988 8.88004C105.449 8.36515 104.803 7.96821 104.093 7.71593C103.344 7.45293 102.553 7.32153 101.756 7.3279C100.621 7.30149 99.4992 7.57821 98.5144 8.1279C97.5969 8.65878 96.8551 9.43343 96.3765 10.3604C95.856 11.3909 95.5975 12.5275 95.6228 13.6749C95.6228 14.9706 95.8752 16.092 96.38 17.039C96.8617 17.9611 97.6143 18.7237 98.5426 19.2305C99.4735 19.7501 100.59 20.0094 101.892 20.0082ZM100.397 10.2236C100.824 9.98145 101.311 9.85786 101.806 9.86636C102.276 9.85718 102.741 9.96925 103.153 10.1911C103.54 10.4 103.859 10.7089 104.076 11.0835C104.301 11.4822 104.414 11.9313 104.405 12.386H99.0902C99.1072 11.9607 99.2279 11.5453 99.4424 11.1741C99.668 10.7806 99.9974 10.4525 100.397 10.2236Z" fill="white"/>
<path d="M114.807 10.5986C115.231 10.3771 115.706 10.2653 116.188 10.2738C116.455 10.2755 116.722 10.2944 116.987 10.3302C117.218 10.3562 117.446 10.399 117.67 10.4584V7.42763C117.497 7.38651 117.32 7.35738 117.142 7.34045C116.953 7.31929 116.763 7.30845 116.573 7.30797C115.898 7.2979 115.238 7.50461 114.696 7.896C114.121 8.332 113.713 8.9412 113.534 9.62762H113.402V7.48404H109.991V19.7695H113.502V12.8208C113.493 12.3552 113.615 11.8961 113.854 11.4926C114.082 11.1158 114.411 10.8066 114.807 10.5986Z" fill="white"/>
<path d="M131.139 17.1093C131.592 16.1691 131.818 15.0135 131.818 13.6426C131.818 12.234 131.584 11.062 131.114 10.1263C130.713 9.26465 130.064 8.53429 129.244 8.02378C128.478 7.56063 127.593 7.31762 126.69 7.32293C126.079 7.30092 125.47 7.418 124.914 7.66481C124.472 7.86941 124.08 8.16041 123.76 8.51951C123.491 8.83117 123.267 9.17677 123.094 9.54686H122.938V7.48361H119.476V24.3759H122.985V17.8016H123.094C123.272 18.1706 123.505 18.5118 123.787 18.8135C124.112 19.1641 124.509 19.4457 124.952 19.6409C125.498 19.8736 126.091 19.9857 126.687 19.9691C127.611 19.9798 128.517 19.7278 129.295 19.2443C130.109 18.7199 130.749 17.9785 131.139 17.1093ZM127.925 15.5178C127.752 16.0172 127.44 16.4604 127.023 16.7981C126.603 17.0941 126.096 17.2535 125.577 17.2535C125.057 17.2535 124.551 17.0941 124.13 16.7981C123.712 16.4663 123.399 16.0275 123.225 15.5315C123.007 14.9189 122.903 14.2734 122.918 13.6255C122.904 12.9782 123.01 12.3336 123.232 11.7229C123.404 11.2324 123.717 10.7997 124.133 10.4751C124.56 10.1865 125.068 10.0332 125.588 10.0359C126.108 10.0387 126.614 10.1974 127.037 10.4904C127.453 10.8224 127.765 11.2605 127.937 11.7554C128.151 12.3567 128.254 12.9896 128.242 13.6255C128.251 14.2694 128.144 14.91 127.925 15.5178Z" fill="white"/>
<path d="M140.725 7.30797C140.05 7.2979 139.389 7.5046 138.847 7.896C138.272 8.332 137.863 8.9412 137.684 9.62762H137.552V7.48404H134.15V19.7695H137.66V12.8208C137.651 12.3553 137.773 11.8963 138.012 11.4926C138.241 11.1163 138.571 10.8073 138.966 10.5986C139.39 10.3767 139.866 10.2649 140.347 10.2738C140.614 10.2756 140.88 10.2944 141.145 10.3302C141.376 10.3562 141.605 10.399 141.83 10.4584V7.42763C141.656 7.38677 141.479 7.35764 141.301 7.34045C141.11 7.3191 140.918 7.30825 140.725 7.30797Z" fill="white"/>
<path d="M147.143 7.4834H143.633V19.7689H147.143V7.4834Z" fill="white"/>
<path d="M145.397 2.4534C144.9 2.44685 144.421 2.63116 144.063 2.96622C143.886 3.11889 143.745 3.30611 143.648 3.51558C143.551 3.72505 143.501 3.95203 143.501 4.1816C143.501 4.41118 143.551 4.63816 143.648 4.84763C143.745 5.0571 143.886 5.24432 144.063 5.39699C144.428 5.72448 144.907 5.90636 145.404 5.90636C145.901 5.90636 146.38 5.72448 146.745 5.39699C146.92 5.24345 147.06 5.05594 147.156 4.84659C147.251 4.63724 147.301 4.4107 147.301 4.1816C147.301 3.95251 147.251 3.72597 147.156 3.51662C147.06 3.30727 146.92 3.11976 146.745 2.96622C146.383 2.62934 145.899 2.44499 145.397 2.4534Z" fill="white"/>
<path d="M157.104 12.6348L154.815 12.1869C154.227 12.0655 153.811 11.9014 153.57 11.6997C153.456 11.6101 153.364 11.4967 153.302 11.368C153.239 11.2393 153.207 11.0985 153.207 10.9561C153.208 10.7731 153.261 10.5939 153.36 10.4381C153.459 10.2822 153.599 10.1557 153.767 10.0724C154.186 9.84076 154.663 9.7271 155.144 9.74416C155.507 9.73488 155.868 9.80194 156.201 9.94074C156.473 10.0577 156.714 10.2331 156.905 10.4536C157.083 10.6633 157.204 10.9123 157.258 11.1783L160.471 10.9852C160.412 10.4538 160.238 9.94058 159.96 9.47901C159.683 9.01744 159.308 8.61793 158.86 8.30655C157.941 7.65014 156.682 7.32194 155.083 7.32194C154.118 7.30234 153.158 7.4601 152.253 7.78689C151.517 8.05011 150.872 8.50779 150.39 9.10826C149.94 9.69713 149.707 10.415 149.726 11.1476C149.711 11.5644 149.783 11.9798 149.938 12.3687C150.093 12.7577 150.328 13.1122 150.627 13.4108C151.23 14.0023 152.148 14.4182 153.383 14.6587L155.576 15.0826C156.013 15.1448 156.43 15.302 156.796 15.5424C156.92 15.6304 157.021 15.7453 157.091 15.878C157.161 16.0107 157.198 16.1575 157.2 16.3066C157.194 16.4921 157.138 16.6729 157.038 16.8307C156.937 16.9886 156.796 17.1179 156.627 17.2057C156.158 17.4413 155.636 17.561 155.108 17.5542C154.579 17.5473 154.061 17.4141 153.598 17.1664C153.4 17.0375 153.23 16.8707 153.1 16.6762C152.97 16.4816 152.882 16.2634 152.841 16.0348L149.388 16.2057C149.458 16.7627 149.65 17.2987 149.95 17.778C150.251 18.2574 150.654 18.6689 151.131 18.9852C152.122 19.6689 153.455 20.0108 155.13 20.0108C156.127 20.0276 157.116 19.8533 158.043 19.498C158.825 19.2036 159.513 18.7142 160.038 18.0792C160.523 17.4741 160.78 16.7261 160.767 15.9595C160.783 15.56 160.711 15.1618 160.554 14.7919C160.398 14.422 160.161 14.0892 159.86 13.816C159.255 13.2746 158.336 12.8809 157.104 12.6348Z" fill="white"/>
<path d="M174.556 14.4974V13.5624C174.576 12.6317 174.422 11.7053 174.104 10.8273C173.833 10.0967 173.402 9.43227 172.839 8.88033C172.301 8.36544 171.655 7.96851 170.945 7.71623C170.195 7.45351 169.404 7.32212 168.608 7.3282C167.47 7.2987 166.346 7.5737 165.359 8.12307C164.443 8.65444 163.704 9.42914 163.228 10.3555C162.705 11.3871 162.444 12.5256 162.469 13.6752C162.469 14.9709 162.722 16.0923 163.228 17.0393C163.71 17.9614 164.462 18.724 165.39 19.2308C166.33 19.7447 167.449 20.0017 168.749 20.0017C169.692 20.019 170.63 19.8606 171.512 19.535C172.264 19.2546 172.936 18.8046 173.473 18.2222C173.983 17.6596 174.331 16.977 174.482 16.2427L171.237 16.0359C171.123 16.332 170.943 16.5995 170.709 16.8188C170.471 17.036 170.187 17.2 169.877 17.2991C169.531 17.4084 169.169 17.4621 168.805 17.4581C168.273 17.4715 167.748 17.3476 167.282 17.0991C166.854 16.859 166.509 16.5024 166.288 16.0735C166.043 15.5831 165.922 15.0426 165.936 14.4974H174.556ZM167.252 10.2239C167.679 9.98207 168.166 9.85851 168.661 9.86666C169.131 9.85748 169.596 9.96954 170.008 10.1914C170.39 10.402 170.705 10.7108 170.918 11.0838C171.143 11.4825 171.257 11.9316 171.247 12.3863H165.947C165.965 11.9611 166.085 11.5459 166.299 11.1744C166.525 10.7815 166.853 10.4536 167.252 10.2239Z" fill="white"/>
<path d="M62.2338 27.665H58.666V44.0462H62.2338V27.665Z" fill="white"/>
<path d="M74.7091 32.1606C74.0091 31.7763 73.215 31.5831 72.411 31.6016C71.5652 31.576 70.7306 31.7944 70.0125 32.229C69.3659 32.6326 68.8716 33.2287 68.6037 33.9281H68.4558V31.7606H65.1099V44.0461H68.6195V36.9435C68.6113 36.4743 68.7175 36.0098 68.9295 35.588C69.1162 35.2287 69.4086 34.9312 69.7695 34.7333C70.152 34.5309 70.5824 34.4289 71.018 34.4375C71.7224 34.4375 72.2742 34.6495 72.6734 35.0734C73.0725 35.4974 73.2704 36.0854 73.2668 36.8375V44.0512H76.78V36.2239C76.803 35.3708 76.6165 34.5247 76.2359 33.7555C75.8971 33.0914 75.3666 32.5372 74.7091 32.1606Z" fill="white"/>
<path d="M86.6979 36.9107L84.4086 36.4629C83.8216 36.3421 83.4071 36.1797 83.1653 35.9757C83.051 35.8863 82.959 35.773 82.8962 35.6442C82.8334 35.5154 82.8014 35.3746 82.8025 35.2321C82.8039 35.0492 82.8567 34.8701 82.9555 34.7143C83.0542 34.5586 83.195 34.432 83.3625 34.3483C83.7802 34.1157 84.2566 34.0008 84.7379 34.0167C85.1004 34.0072 85.4608 34.0736 85.7945 34.2116C86.0694 34.3274 86.3134 34.5029 86.5077 34.7244C86.6848 34.9341 86.8058 35.1831 86.8599 35.4492L90.0737 35.256C90.0135 34.7248 89.839 34.2119 89.5614 33.7504C89.2838 33.289 88.9094 32.8893 88.4624 32.5774C87.5408 31.921 86.2817 31.5933 84.685 31.5945C83.7195 31.5744 82.7588 31.7315 81.8533 32.0577C81.1152 32.3194 80.4673 32.7765 79.9832 33.3774C79.5351 33.9668 79.3021 34.6844 79.321 35.4167C79.3054 35.8336 79.3773 36.2492 79.5323 36.6383C79.6873 37.0273 79.9222 37.3817 80.2227 37.68C80.8237 38.2714 81.7424 38.6874 82.9786 38.9278L85.1711 39.3517C85.6076 39.4147 86.024 39.5718 86.3897 39.8116C86.5141 39.8992 86.6154 40.014 86.6855 40.1468C86.7555 40.2796 86.7924 40.4265 86.793 40.5757C86.7878 40.7613 86.7322 40.9422 86.6317 41.1001C86.5311 41.2581 86.3893 41.3873 86.2206 41.4748C85.7516 41.7105 85.23 41.8302 84.702 41.8233C84.1739 41.8164 83.6558 41.6832 83.1935 41.4355C82.9944 41.3068 82.8245 41.1401 82.694 40.9455C82.5635 40.751 82.4752 40.5326 82.4345 40.3039L78.9829 40.4748C79.0521 41.0319 79.2433 41.5682 79.5437 42.0476C79.8441 42.527 80.2467 42.9385 80.7245 43.2543C81.7154 43.9381 83.0491 44.2799 84.7255 44.2799C85.7217 44.2967 86.7116 44.1224 87.6382 43.7671C88.4198 43.4761 89.1086 42.9903 89.6352 42.3586C90.1202 41.7534 90.3775 41.0055 90.3643 40.2389C90.3807 39.8395 90.3084 39.4413 90.1522 39.0714C89.9961 38.7015 89.7597 38.3686 89.4591 38.0953C88.8486 37.5517 87.9282 37.1569 86.6979 36.9107Z" fill="white"/>
<path d="M96.0824 31.7609H92.5728V44.0463H96.0824V31.7609Z" fill="white"/>
<path d="M94.3352 26.7298C93.8381 26.7236 93.3585 26.9079 93.0004 27.2426C92.8242 27.3958 92.6833 27.5832 92.5868 27.7928C92.4903 28.0024 92.4404 28.2293 92.4404 28.4589C92.4404 28.6884 92.4903 28.9154 92.5868 29.125C92.6833 29.3346 92.8242 29.522 93.0004 29.6751C93.366 30.0015 93.8447 30.1827 94.3414 30.1827C94.8382 30.1827 95.3168 30.0015 95.6824 29.6751C95.8576 29.5214 95.9977 29.3338 96.0935 29.1243C96.1894 28.9148 96.2389 28.6881 96.2389 28.4589C96.2389 28.2297 96.1894 28.003 96.0935 27.7935C95.9977 27.584 95.8576 27.3963 95.6824 27.2426C95.3212 26.9051 94.8366 26.7207 94.3352 26.7298Z" fill="white"/>
<path d="M107.287 33.8234H107.157C106.974 33.4602 106.746 33.1203 106.477 32.8114C106.157 32.4513 105.762 32.1602 105.319 31.9567C104.761 31.7103 104.152 31.5932 103.54 31.6148C102.636 31.6072 101.749 31.8484 100.981 32.3106C100.163 32.8184 99.5148 33.5458 99.1146 34.4046C98.645 35.3379 98.4102 36.5009 98.4102 37.8935C98.4102 39.253 98.6397 40.3767 99.0987 41.2644C99.4974 42.0891 100.144 42.7774 100.953 43.2388C101.745 43.6679 102.64 43.8856 103.547 43.8695C104.138 43.8831 104.726 43.7856 105.278 43.5824C105.722 43.4144 106.125 43.1608 106.465 42.8371C106.755 42.5582 106.989 42.2303 107.157 41.8695H107.305V44.1174C107.305 44.9231 107.056 45.502 106.558 45.8542C106.003 46.2219 105.34 46.4065 104.669 46.3807C104.228 46.3919 103.788 46.327 103.371 46.1892C103.054 46.0836 102.764 45.9161 102.517 45.6969C102.318 45.5174 102.159 45.3012 102.048 45.061L98.8011 45.4849C98.9515 46.1183 99.273 46.7012 99.7327 47.1738C100.272 47.7183 100.935 48.1317 101.67 48.3807C102.608 48.7 103.598 48.8517 104.591 48.8285C105.685 48.8479 106.774 48.6687 107.8 48.3003C108.669 47.9931 109.428 47.4502 109.989 46.7362C110.516 46.0456 110.779 45.1909 110.779 44.1721V31.7601H107.293L107.287 33.8234ZM107.004 39.714C106.826 40.1855 106.511 40.5968 106.097 40.8986C105.667 41.1702 105.164 41.3148 104.651 41.3148C104.138 41.3148 103.636 41.1702 103.205 40.8986C102.793 40.5925 102.481 40.1768 102.307 39.702C102.089 39.1138 101.984 38.4913 101.999 37.8661C101.987 37.2375 102.09 36.6118 102.304 36.0183C102.476 35.5273 102.787 35.0935 103.202 34.767C103.625 34.4755 104.131 34.3179 104.65 34.3157C105.169 34.3136 105.676 34.467 106.102 34.755C106.518 35.0762 106.831 35.5046 107.007 35.9909C107.23 36.5938 107.336 37.2311 107.321 37.8712C107.335 38.4994 107.228 39.1245 107.004 39.714Z" fill="white"/>
<path d="M123.219 32.1573C122.517 31.7751 121.722 31.5832 120.918 31.6018C119.956 31.6018 119.157 31.8081 118.519 32.2206C117.883 32.6333 117.398 33.232 117.135 33.93H116.987V27.665H113.585V44.0462H117.095V36.9437C117.086 36.4736 117.195 36.0084 117.412 35.5881C117.604 35.2274 117.903 34.93 118.269 34.7334C118.657 34.5308 119.093 34.4289 119.534 34.4377C120.246 34.4377 120.802 34.6479 121.201 35.0685C121.601 35.489 121.797 36.0787 121.791 36.8377V44.0514H125.301V36.224C125.33 35.3688 125.145 34.5195 124.762 33.7488C124.419 33.0835 123.883 32.5303 123.219 32.1573Z" fill="white"/>
<path d="M134.092 41.4277C133.928 41.4564 133.763 41.4707 133.597 41.4704C133.385 41.4745 133.174 41.4397 132.975 41.3678C132.797 41.2976 132.65 41.1687 132.56 41.0037C132.449 40.7753 132.399 40.5241 132.412 40.2721V34.32H134.793V31.7558H132.412V28.8174H128.906V31.761H127.176V34.3251H128.906V40.7251C128.906 41.5296 129.079 42.1957 129.425 42.7234C129.78 43.2538 130.297 43.6623 130.904 43.8909C131.612 44.1536 132.369 44.2655 133.125 44.2191C133.516 44.2111 133.905 44.167 134.287 44.0875C134.606 44.0157 134.853 43.9524 135.029 43.8994L134.47 41.3678L134.092 41.4277Z" fill="white"/>
</svg>
