
<svg width="34" height="34" viewBox="0 0 34 34" fill="none" xmlns="http://www.w3.org/2000/svg">
<path fill-rule="evenodd" clip-rule="evenodd" d="M26.3214 9.73152C26.7119 9.341 26.7119 8.70783 26.3214 8.31731C25.9308 7.92678 25.2977 7.92678 24.9072 8.31731L17.3643 15.8602L9.82136 8.31731C9.43084 7.92678 8.79768 7.92678 8.40715 8.31731C8.01663 8.70783 8.01663 9.341 8.40715 9.73152L15.95 17.2744L8.40715 24.8173C8.01663 25.2078 8.01663 25.841 8.40715 26.2315C8.79768 26.622 9.43084 26.622 9.82136 26.2315L17.3643 18.6886L24.9072 26.2315C25.2977 26.622 25.9308 26.622 26.3214 26.2315C26.7119 25.841 26.7119 25.2078 26.3214 24.8173L18.7785 17.2744L26.3214 9.73152Z" fill="#4A4D61"/>
</svg>
