<svg width="20" height="21" viewBox="0 0 20 21" fill="none" xmlns="http://www.w3.org/2000/svg">
<path fill-rule="evenodd" clip-rule="evenodd" d="M4.34315 4.84315C5.84344 3.34285 7.87827 2.5 10 2.5C12.1217 2.5 14.1566 3.34285 15.6569 4.84315C17.1571 6.34344 18 8.37827 18 10.5V11.5H16C15.2043 11.5 14.4413 11.8161 13.8787 12.3787C13.3161 12.9413 13 13.7044 13 14.5V17.5C13 18.2957 13.3161 19.0587 13.8787 19.6213C14.4413 20.1839 15.2043 20.5 16 20.5H17C17.7957 20.5 18.5587 20.1839 19.1213 19.6213C19.6839 19.0587 20 18.2957 20 17.5V16.5V12.5V10.5C20 7.84784 18.9464 5.3043 17.0711 3.42893C15.1957 1.55357 12.6522 0.5 10 0.5C7.34784 0.5 4.8043 1.55357 2.92893 3.42893C1.05357 5.3043 0 7.84784 0 10.5V12.5V16.5V17.5C0 18.2957 0.316071 19.0587 0.87868 19.6213C1.44129 20.1839 2.20435 20.5 3 20.5H4C4.79565 20.5 5.55871 20.1839 6.12132 19.6213C6.68393 19.0587 7 18.2957 7 17.5V14.5C7 13.7044 6.68393 12.9413 6.12132 12.3787C5.55871 11.8161 4.79565 11.5 4 11.5H2V10.5C2 8.37827 2.84285 6.34344 4.34315 4.84315ZM2 13.5V16.5V17.5C2 17.7652 2.10536 18.0196 2.29289 18.2071C2.48043 18.3946 2.73478 18.5 3 18.5H4C4.26522 18.5 4.51957 18.3946 4.70711 18.2071C4.89464 18.0196 5 17.7652 5 17.5V14.5C5 14.2348 4.89464 13.9804 4.70711 13.7929C4.51957 13.6054 4.26522 13.5 4 13.5H2ZM18 13.5H16C15.7348 13.5 15.4804 13.6054 15.2929 13.7929C15.1054 13.9804 15 14.2348 15 14.5V17.5C15 17.7652 15.1054 18.0196 15.2929 18.2071C15.4804 18.3946 15.7348 18.5 16 18.5H17C17.2652 18.5 17.5196 18.3946 17.7071 18.2071C17.8946 18.0196 18 17.7652 18 17.5V16.5V13.5Z" fill="#E82A45"/>
</svg>
